<svg xmlns="http://www.w3.org/2000/svg" viewBox="0 0 960.27 773.91"><defs><style>.cls-1{fill:#ff953f;}.cls-2{fill:#fff;}</style></defs><g id="레이어_2" data-name="레이어 2"><g id="레이어_1-2" data-name="레이어 1"><path class="cls-1" d="M67.3,133.44.14,522a9.44,9.44,0,0,0,8.27,11l347.14,38a9.46,9.46,0,0,1,8.39,8.78l12.49,194.09L502.34,562.42a9.42,9.42,0,0,1,6.07-4.39l380.76-84.18a9.44,9.44,0,0,0,6.3-4.79l63.7-119.89a9.43,9.43,0,0,0,.13-8.59L794.56,5.28A9.42,9.42,0,0,0,784.44.15L75,125.75A9.45,9.45,0,0,0,67.3,133.44Z"/><path class="cls-2" d="M108.48,172.72l-42.78,308a9.25,9.25,0,0,0,7.89,10.44l307.52,42.71a9.26,9.26,0,0,1,7.95,8.38l10.37,121.64,80.08-127a9.24,9.24,0,0,1,5.39-4L859,431.12a9.26,9.26,0,0,0,6.16-5.49l30.78-77a9.26,9.26,0,0,0-.23-7.42L766.4,70.13A9.26,9.26,0,0,0,756.62,65l-640.4,99.88A9.25,9.25,0,0,0,108.48,172.72Z"/></g></g></svg>